<svg xmlns="http://www.w3.org/2000/svg" width="14" height="13.683"><g id="Groupe_268" data-name="Groupe 268" transform="translate(-204 -89.338)" fill="none"><g id="Tracé_213" data-name="Tracé 213"><path d="M.933 4h12.134L14 11.266a2.778 2.778 0 0 1-2.8 2.755H2.8A2.778 2.778 0 0 1 0 11.266Z" transform="translate(204 89)"/><path d="m1.813 5-.812 6.322c.03.942.826 1.699 1.799 1.699h8.4c.973 0 1.768-.757 1.8-1.699L12.186 5H1.813m-.88-1h12.134L14 11.266c0 1.521-1.254 2.755-2.8 2.755H2.8c-1.546 0-2.8-1.234-2.8-2.755L.933 4Z" fill="#22292d" transform="translate(204 89)"/></g><path id="Tracé_214" data-name="Tracé 214" d="M208.569 95.162v-2.895s.186-2.43 2.428-2.43 2.432 2.43 2.432 2.43v2.895" stroke="#22292d" stroke-linecap="round" stroke-width="1"/></g></svg>