<svg xmlns="http://www.w3.org/2000/svg" width="84" height="15.551"><defs><clipPath id="clip-path"><path id="Rectangle_139" data-name="Rectangle 139" fill="#22292d" d="M0 0h84v4.517H0z"/></clipPath></defs><g id="Groupe_452" data-name="Groupe 452" transform="translate(-166 -351.449)"><g id="Groupe_281" data-name="Groupe 281" transform="translate(166 362.483)"><g id="Groupe_280" data-name="Groupe 280" clip-path="url('#clip-path')"><path id="Tracé_218" data-name="Tracé 218" d="M84 .009v.935a4.2 4.2 0 0 0-2.887 1.642 5 5 0 0 1-3.847 1.932 5 5 0 0 1-3.844-1.932 3.885 3.885 0 0 0-6.358 0 5 5 0 0 1-3.847 1.932 4.993 4.993 0 0 1-3.844-1.932 3.885 3.885 0 0 0-6.358 0 5 5 0 0 1-3.847 1.932 4.993 4.993 0 0 1-3.844-1.932 3.885 3.885 0 0 0-6.358 0 5 5 0 0 1-3.846 1.931 5 5 0 0 1-3.844-1.932 3.885 3.885 0 0 0-6.358 0 5 5 0 0 1-3.847 1.932 5 5 0 0 1-3.844-1.932A4.074 4.074 0 0 0 14.049.934a4.074 4.074 0 0 0-3.179 1.652 5 5 0 0 1-3.847 1.931 5 5 0 0 1-3.844-1.931A4.074 4.074 0 0 0 0 .934V0a5 5 0 0 1 3.847 1.932 4.069 4.069 0 0 0 3.176 1.651A4.079 4.079 0 0 0 10.2 1.932 4.989 4.989 0 0 1 14.049 0a4.989 4.989 0 0 1 3.844 1.932 4.078 4.078 0 0 0 3.179 1.651 4.074 4.074 0 0 0 3.179-1.651 4.794 4.794 0 0 1 7.691 0 4.074 4.074 0 0 0 3.178 1.651 4.074 4.074 0 0 0 3.18-1.651 4.794 4.794 0 0 1 7.691 0 4.074 4.074 0 0 0 3.179 1.651 4.074 4.074 0 0 0 3.179-1.651 4.794 4.794 0 0 1 7.691 0 4.074 4.074 0 0 0 3.179 1.651A4.074 4.074 0 0 0 66.4 1.932a4.794 4.794 0 0 1 7.691 0 4.078 4.078 0 0 0 3.179 1.651 4.074 4.074 0 0 0 3.179-1.651A5.084 5.084 0 0 1 84 .009" fill="#22292d"/></g></g><g id="Groupe_282" data-name="Groupe 282" transform="translate(166 356.966)"><g id="Groupe_280-2" data-name="Groupe 280" clip-path="url('#clip-path')"><path id="Tracé_218-2" data-name="Tracé 218" d="M84 .009v.935a4.2 4.2 0 0 0-2.887 1.642 5 5 0 0 1-3.847 1.932 5 5 0 0 1-3.844-1.932 3.885 3.885 0 0 0-6.358 0 5 5 0 0 1-3.847 1.932 4.993 4.993 0 0 1-3.844-1.932 3.885 3.885 0 0 0-6.358 0 5 5 0 0 1-3.847 1.932 4.993 4.993 0 0 1-3.844-1.932 3.885 3.885 0 0 0-6.358 0 5 5 0 0 1-3.846 1.931 5 5 0 0 1-3.844-1.932 3.885 3.885 0 0 0-6.358 0 5 5 0 0 1-3.847 1.932 5 5 0 0 1-3.844-1.932A4.074 4.074 0 0 0 14.049.934a4.074 4.074 0 0 0-3.179 1.652 5 5 0 0 1-3.847 1.931 5 5 0 0 1-3.844-1.931A4.074 4.074 0 0 0 0 .934V0a5 5 0 0 1 3.847 1.932 4.069 4.069 0 0 0 3.176 1.651A4.079 4.079 0 0 0 10.2 1.932 4.989 4.989 0 0 1 14.049 0a4.989 4.989 0 0 1 3.844 1.932 4.078 4.078 0 0 0 3.179 1.651 4.074 4.074 0 0 0 3.179-1.651 4.794 4.794 0 0 1 7.691 0 4.074 4.074 0 0 0 3.178 1.651 4.074 4.074 0 0 0 3.18-1.651 4.794 4.794 0 0 1 7.691 0 4.074 4.074 0 0 0 3.179 1.651 4.074 4.074 0 0 0 3.179-1.651 4.794 4.794 0 0 1 7.691 0 4.074 4.074 0 0 0 3.179 1.651A4.074 4.074 0 0 0 66.4 1.932a4.794 4.794 0 0 1 7.691 0 4.078 4.078 0 0 0 3.179 1.651 4.074 4.074 0 0 0 3.179-1.651A5.084 5.084 0 0 1 84 .009" fill="#22292d"/></g></g><g id="Groupe_283" data-name="Groupe 283" transform="translate(166 351.449)"><g id="Groupe_280-3" data-name="Groupe 280" clip-path="url('#clip-path')"><path id="Tracé_218-3" data-name="Tracé 218" d="M84 .009v.935a4.2 4.2 0 0 0-2.887 1.642 5 5 0 0 1-3.847 1.932 5 5 0 0 1-3.844-1.932 3.885 3.885 0 0 0-6.358 0 5 5 0 0 1-3.847 1.932 4.993 4.993 0 0 1-3.844-1.932 3.885 3.885 0 0 0-6.358 0 5 5 0 0 1-3.847 1.932 4.993 4.993 0 0 1-3.844-1.932 3.885 3.885 0 0 0-6.358 0 5 5 0 0 1-3.846 1.931 5 5 0 0 1-3.844-1.932 3.885 3.885 0 0 0-6.358 0 5 5 0 0 1-3.847 1.932 5 5 0 0 1-3.844-1.932A4.074 4.074 0 0 0 14.049.934a4.074 4.074 0 0 0-3.179 1.652 5 5 0 0 1-3.847 1.931 5 5 0 0 1-3.844-1.931A4.074 4.074 0 0 0 0 .934V0a5 5 0 0 1 3.847 1.932 4.069 4.069 0 0 0 3.176 1.651A4.079 4.079 0 0 0 10.2 1.932 4.989 4.989 0 0 1 14.049 0a4.989 4.989 0 0 1 3.844 1.932 4.078 4.078 0 0 0 3.179 1.651 4.074 4.074 0 0 0 3.179-1.651 4.794 4.794 0 0 1 7.691 0 4.074 4.074 0 0 0 3.178 1.651 4.074 4.074 0 0 0 3.18-1.651 4.794 4.794 0 0 1 7.691 0 4.074 4.074 0 0 0 3.179 1.651 4.074 4.074 0 0 0 3.179-1.651 4.794 4.794 0 0 1 7.691 0 4.074 4.074 0 0 0 3.179 1.651A4.074 4.074 0 0 0 66.4 1.932a4.794 4.794 0 0 1 7.691 0 4.078 4.078 0 0 0 3.179 1.651 4.074 4.074 0 0 0 3.179-1.651A5.084 5.084 0 0 1 84 .009" fill="#22292d"/></g></g></g></svg>