<svg xmlns="http://www.w3.org/2000/svg" width="14" height="13.683" viewBox="0 0 14 13.683">
  <g id="Groupe_268" data-name="Groupe 268" transform="translate(-204 -89.338)">
    <g id="Tracé_213" data-name="Tracé 213" transform="translate(204 89)" fill="none">
      <path d="M.933,4H13.067L14,11.266a2.778,2.778,0,0,1-2.8,2.755H2.8A2.778,2.778,0,0,1,0,11.266Z" stroke="none"></path>
      <path d="M 1.813085556030273 5 L 1.00092601776123 11.32226371765137 C 1.031712532043457 12.26395225524902 1.826924324035645 13.02070045471191 2.79999828338623 13.02070045471191 L 11.19999885559082 13.02070045471191 C 12.17307281494141 13.02070045471191 12.96828460693359 12.26395225524902 12.99907112121582 11.32226371765137 L 12.18691158294678 5 L 1.813085556030273 5 M 0.9333286285400391 4 L 13.06666851043701 4 L 13.99999809265137 11.2655200958252 C 13.99999809265137 12.78717041015625 12.74639892578125 14.02070045471191 11.19999885559082 14.02070045471191 L 2.79999828338623 14.02070045471191 C 1.253598213195801 14.02070045471191 -9.5367431640625e-07 12.78717041015625 -9.5367431640625e-07 11.2655200958252 L 0.9333286285400391 4 Z" stroke="none" fill="#22292d"></path>
    </g>
    <path id="Tracé_214" data-name="Tracé 214" d="M-23496.035-2533.86v-2.895s.186-2.43,2.428-2.43,2.432,2.43,2.432,2.43v2.895" transform="translate(23704.604 2629.022)" fill="none" stroke="#22292d" stroke-linecap="round" stroke-width="1"></path>
  </g>
</svg>
