<svg xmlns="http://www.w3.org/2000/svg" width="16.5" height="16.5" viewBox="0 0 16.5 16.5">
  <g id="_2561453_instagram_icon" data-name="2561453_instagram_icon" transform="translate(0.75 0.75)">
    <path id="Rectangle_12" data-name="Rectangle 12" d="M5-.75h5A5.757,5.757,0,0,1,15.75,5v5A5.757,5.757,0,0,1,10,15.75H5A5.757,5.757,0,0,1-.75,10V5A5.757,5.757,0,0,1,5-.75Zm5,15A4.255,4.255,0,0,0,14.25,10V5A4.255,4.255,0,0,0,10,.75H5A4.255,4.255,0,0,0,.75,5v5A4.255,4.255,0,0,0,5,14.25Z" transform="translate(0 0)" fill="#f9f3ed"/>
    <path id="Tracé_17" data-name="Tracé 17" d="M11.055,7.207a3.783,3.783,0,0,1,.553.041,3.763,3.763,0,0,1,1.14,7.084,3.78,3.78,0,0,1-1.691.4,3.763,3.763,0,0,1,0-7.526Zm0,6.026a2.263,2.263,0,1,0-1.6-.663A2.249,2.249,0,0,0,11.057,13.233Z" transform="translate(-3.524 -3.502)" fill="#f9f3ed"/>
    <path id="Ligne_1" data-name="Ligne 1" transform="translate(11.625 3.375)" fill="#f9f3ed"/>
  </g>
</svg>
