<svg xmlns="http://www.w3.org/2000/svg" xmlns:xlink="http://www.w3.org/1999/xlink" width="84" height="4.517" viewBox="0 0 84 4.517">
  <defs>
    <clipPath id="clip-path">
      <rect id="Rectangle_139" data-name="Rectangle 139" width="84" height="4.517" transform="translate(0 0)" fill="#f9f3ed"/>
    </clipPath>
  </defs>
  <g id="Groupe_281" data-name="Groupe 281" transform="translate(0 0)">
    <g id="Groupe_280" data-name="Groupe 280" transform="translate(0 0)" clip-path="url(#clip-path)">
      <path id="Tracé_218" data-name="Tracé 218" d="M84,.009V.944a4.2,4.2,0,0,0-2.887,1.642,5,5,0,0,1-3.847,1.932,5,5,0,0,1-3.844-1.932,3.885,3.885,0,0,0-6.358,0,5,5,0,0,1-3.847,1.932,4.993,4.993,0,0,1-3.844-1.932,3.885,3.885,0,0,0-6.358,0,5,5,0,0,1-3.847,1.932,4.993,4.993,0,0,1-3.844-1.932,3.885,3.885,0,0,0-6.358,0A5,5,0,0,1,35.12,4.517a5,5,0,0,1-3.844-1.932,3.885,3.885,0,0,0-6.358,0,5,5,0,0,1-3.847,1.932,5,5,0,0,1-3.844-1.932A4.074,4.074,0,0,0,14.049.934,4.074,4.074,0,0,0,10.87,2.586,5,5,0,0,1,7.023,4.517,5,5,0,0,1,3.179,2.586,4.074,4.074,0,0,0,0,.934V0A5,5,0,0,1,3.847,1.932,4.069,4.069,0,0,0,7.023,3.583,4.079,4.079,0,0,0,10.2,1.932,4.989,4.989,0,0,1,14.049,0a4.989,4.989,0,0,1,3.844,1.932,4.078,4.078,0,0,0,3.179,1.651,4.074,4.074,0,0,0,3.179-1.651,4.794,4.794,0,0,1,7.691,0A4.074,4.074,0,0,0,35.12,3.583,4.074,4.074,0,0,0,38.3,1.932a4.794,4.794,0,0,1,7.691,0,4.074,4.074,0,0,0,3.179,1.651,4.074,4.074,0,0,0,3.179-1.651,4.794,4.794,0,0,1,7.691,0,4.074,4.074,0,0,0,3.179,1.651A4.074,4.074,0,0,0,66.4,1.932a4.794,4.794,0,0,1,7.691,0,4.078,4.078,0,0,0,3.179,1.651,4.074,4.074,0,0,0,3.179-1.651A5.084,5.084,0,0,1,84,.009" transform="translate(0 0)" fill="#f9f3ed"/>
    </g>
  </g>
</svg>
