<svg xmlns="http://www.w3.org/2000/svg" width="123.534" height="116.065" viewBox="0 0 123.534 116.065">
  <g id="Groupe_80" data-name="Groupe 80" transform="translate(-542.863 1972.58)">
    <g id="Groupe_72" data-name="Groupe 72" transform="translate(581.399 -1943.757)">
      <path id="Tracé_89" data-name="Tracé 89" d="M809.739-1752.042l-11.053-28.905-.349-.914-5.253-13.738v-11.911H780.49v11.911l-14.664,38.352h0v0l-.1.253-1.893,4.948a4.223,4.223,0,0,0,.806,4.341,4.169,4.169,0,0,0,3.149,1.4h37.993a4.235,4.235,0,0,0,3.488-1.834A4.237,4.237,0,0,0,809.739-1752.042Zm-1.718-1.262h0a2.015,2.015,0,0,1-1.2.361,2.013,2.013,0,0,1-1.2-.361,3.14,3.14,0,0,0-1.788-.521,3.141,3.141,0,0,0-1.788.521,2.015,2.015,0,0,1-1.2.361,2.014,2.014,0,0,1-1.2-.361,3.14,3.14,0,0,0-1.788-.521,3.142,3.142,0,0,0-1.789.521,2.014,2.014,0,0,1-1.2.361,2.014,2.014,0,0,1-1.2-.361,3.143,3.143,0,0,0-1.789-.521,3.144,3.144,0,0,0-1.787.52,2.844,2.844,0,0,1-.506.255,24.866,24.866,0,0,0-4.1-2.7,2.4,2.4,0,0,1,.414-.033,2.018,2.018,0,0,1,1.2.361,3.143,3.143,0,0,0,1.788.52,3.141,3.141,0,0,0,1.788-.52,2.016,2.016,0,0,1,1.2-.36,2.018,2.018,0,0,1,1.2.361,3.144,3.144,0,0,0,1.788.52,3.143,3.143,0,0,0,1.788-.52,2.018,2.018,0,0,1,1.2-.361,2.015,2.015,0,0,1,1.2.36,3.142,3.142,0,0,0,1.788.52,3.144,3.144,0,0,0,1.789-.52,2.016,2.016,0,0,1,1.2-.36,2.015,2.015,0,0,1,1.2.36,3.142,3.142,0,0,0,1.788.52,3.615,3.615,0,0,0,.575-.044Zm-26.377-42.082v-10.969H791.93v10.969l5.167,13.514H791.04a.577.577,0,0,0-.577.577.577.577,0,0,0,.577.577h6.5l9.429,24.658c-.049,0-.1.005-.149.005a2.017,2.017,0,0,1-1.2-.36,3.141,3.141,0,0,0-1.788-.52,3.144,3.144,0,0,0-1.788.52,2.019,2.019,0,0,1-1.2.36,2.017,2.017,0,0,1-1.2-.36,3.14,3.14,0,0,0-1.788-.52,3.144,3.144,0,0,0-1.789.52,2.017,2.017,0,0,1-1.2.36,2.016,2.016,0,0,1-1.2-.36,3.145,3.145,0,0,0-1.789-.52,3.14,3.14,0,0,0-1.788.52,2.017,2.017,0,0,1-1.2.36,2.017,2.017,0,0,1-1.2-.36,3.145,3.145,0,0,0-1.789-.52,3.141,3.141,0,0,0-1.785.518,24.671,24.671,0,0,0-3.186-1.178v-4.8a4.139,4.139,0,0,0,3,1.284v-1.154a3,3,0,0,1-3-2.994v-2.33a4.139,4.139,0,0,0,3,1.284v-1.154a3,3,0,0,1-3-2.993v-.005h-1.154a3,3,0,0,1-3,3v1.154a4.139,4.139,0,0,0,3-1.284v2.326h0a3,3,0,0,1-3,3v1.154a4.139,4.139,0,0,0,3-1.284v4.492a24.906,24.906,0,0,0-5.839-.687,24.88,24.88,0,0,0-6.691.911Zm-13.854,47.935c-.078,0-.156,0-.233-.009h-.01a3.111,3.111,0,0,1-.454-.068l-.006,0q-.11-.025-.217-.058h0a3,3,0,0,1-.414-.163l-.018-.009a2.978,2.978,0,0,1-.376-.22l-.012-.008a16.267,16.267,0,0,1,6.836-1.989q.515-.033,1.033-.032a16.333,16.333,0,0,1,4.1.519q.285.074.567.158h0a16.153,16.153,0,0,1,4.111,1.882Zm16.89,0a17.315,17.315,0,0,0-5.768-2.987,17.287,17.287,0,0,0-1.84-.441,17.558,17.558,0,0,0-3.154-.284,17.431,17.431,0,0,0-8.7,2.321,3.067,3.067,0,0,1-.321-2.734,19.772,19.772,0,0,1,9.022-2.146,19.843,19.843,0,0,1,8.457,1.869l.086.039a20.046,20.046,0,0,1,3.58,2.178h0a20.155,20.155,0,0,1,2.43,2.186Zm5.337,0a21.365,21.365,0,0,0-3.278-3.1h0a21.18,21.18,0,0,0-3.875-2.346l-.118-.054h0a20.986,20.986,0,0,0-8.828-1.923,21.256,21.256,0,0,0-8.43,1.746l1.22-3.191a23.689,23.689,0,0,1,7.21-1.115,23.5,23.5,0,0,1,9.967,2.189,23.686,23.686,0,0,1,5.183,3.276,23.926,23.926,0,0,1,2.341,2.228,23.818,23.818,0,0,1,1.857,2.294Zm18.3-1.333a3.039,3.039,0,0,1-2.537,1.334H794.664q-.5-.747-1.044-1.458a3.1,3.1,0,0,0,1.233.231,3.143,3.143,0,0,0,1.788-.52,2.018,2.018,0,0,1,1.2-.361,2.014,2.014,0,0,1,1.2.36,3.144,3.144,0,0,0,1.788.52,3.146,3.146,0,0,0,1.789-.52,2.014,2.014,0,0,1,1.2-.36,2.014,2.014,0,0,1,1.2.36,3.144,3.144,0,0,0,1.788.52,3.093,3.093,0,0,0,1.724-.483A3.2,3.2,0,0,1,808.32-1748.784Zm-.3-1.408a2.015,2.015,0,0,1-1.2.36,2.014,2.014,0,0,1-1.2-.361,3.142,3.142,0,0,0-1.788-.52,3.142,3.142,0,0,0-1.788.52,2.017,2.017,0,0,1-1.2.361,2.015,2.015,0,0,1-1.2-.361,3.142,3.142,0,0,0-1.788-.52,3.145,3.145,0,0,0-1.789.52,2.015,2.015,0,0,1-1.2.361,2.014,2.014,0,0,1-1.2-.361,3.144,3.144,0,0,0-1.564-.513c-.5-.53-1.017-1.041-1.559-1.528l.132-.077a2.015,2.015,0,0,1,1.2-.361,2.016,2.016,0,0,1,1.2.361,3.139,3.139,0,0,0,1.788.521,3.139,3.139,0,0,0,1.788-.521,2.016,2.016,0,0,1,1.2-.361,2.014,2.014,0,0,1,1.2.361,3.14,3.14,0,0,0,1.788.521,3.143,3.143,0,0,0,1.789-.521,2.014,2.014,0,0,1,1.2-.361,2.014,2.014,0,0,1,1.2.361,3.14,3.14,0,0,0,1.788.521,3.044,3.044,0,0,0,1.621-.423l.223.582a3.108,3.108,0,0,1,.206,1.046A3.615,3.615,0,0,0,808.02-1750.192Z" transform="translate(-763.555 1807.51)" fill="#1a1f22"/>
      <path id="Tracé_90" data-name="Tracé 90" d="M868.152-1675.322h7.187a.577.577,0,0,0,.577-.577.577.577,0,0,0-.577-.577h-7.187a.577.577,0,0,0-.577.577A.577.577,0,0,0,868.152-1675.322Z" transform="translate(-849.412 1699.356)" fill="#1a1f22"/>
      <path id="Tracé_91" data-name="Tracé 91" d="M924.863-1675.322h2.525a.577.577,0,0,0,.577-.577.577.577,0,0,0-.577-.577h-2.525a.577.577,0,0,0-.577.577A.577.577,0,0,0,924.863-1675.322Z" transform="translate(-896.22 1699.356)" fill="#1a1f22"/>
      <path id="Tracé_92" data-name="Tracé 92" d="M890.747-1660.681h-2.525a.577.577,0,0,0-.577.577.577.577,0,0,0,.577.577h2.525a.577.577,0,0,0,.577-.577A.577.577,0,0,0,890.747-1660.681Z" transform="translate(-865.977 1686.319)" fill="#1a1f22"/>
      <path id="Tracé_93" data-name="Tracé 93" d="M912.983-1607.694a3,3,0,0,1,3,3h1.154a3,3,0,0,1,3-3v-1.154a4.153,4.153,0,0,0-3.575,2.044,4.153,4.153,0,0,0-3.575-2.044Z" transform="translate(-886.891 1643.537)" fill="#1a1f22"/>
    </g>
    <g id="Groupe_73" data-name="Groupe 73" transform="translate(542.863 -1910.578)">
      <path id="Tracé_94" data-name="Tracé 94" d="M543.44-1616.346h7.187a.577.577,0,0,0,.577-.577.577.577,0,0,0-.577-.577H543.44a.577.577,0,0,0-.577.577A.577.577,0,0,0,543.44-1616.346Z" transform="translate(-542.863 1617.5)" fill="#1a1f22"/>
      <path id="Tracé_95" data-name="Tracé 95" d="M600.151-1616.346h2.525a.577.577,0,0,0,.577-.577.577.577,0,0,0-.577-.577h-2.525a.577.577,0,0,0-.577.577A.577.577,0,0,0,600.151-1616.346Z" transform="translate(-589.671 1617.5)" fill="#1a1f22"/>
      <path id="Tracé_96" data-name="Tracé 96" d="M598.5-1602.18h-7.187a.577.577,0,0,0-.577.577.577.577,0,0,0,.577.577H598.5a.577.577,0,0,0,.577-.577A.577.577,0,0,0,598.5-1602.18Z" transform="translate(-582.38 1604.855)" fill="#1a1f22"/>
      <path id="Tracé_97" data-name="Tracé 97" d="M563.829-1602.18H561.3a.577.577,0,0,0-.577.577.577.577,0,0,0,.577.577h2.525a.577.577,0,0,0,.577-.577A.577.577,0,0,0,563.829-1602.18Z" transform="translate(-557.608 1604.855)" fill="#1a1f22"/>
    </g>
    <g id="Groupe_74" data-name="Groupe 74" transform="translate(649.696 -1910.578)">
      <path id="Tracé_98" data-name="Tracé 98" d="M1210.333-1616.346h-7.187a.577.577,0,0,1-.577-.577.577.577,0,0,1,.577-.577h7.187a.577.577,0,0,1,.577.577A.577.577,0,0,1,1210.333-1616.346Z" transform="translate(-1194.209 1617.5)" fill="#1a1f22"/>
      <path id="Tracé_99" data-name="Tracé 99" d="M1175.658-1616.346h-2.525a.577.577,0,0,1-.577-.577.577.577,0,0,1,.577-.577h2.525a.577.577,0,0,1,.577.577A.577.577,0,0,1,1175.658-1616.346Z" transform="translate(-1169.437 1617.5)" fill="#1a1f22"/>
      <path id="Tracé_100" data-name="Tracé 100" d="M1155.27-1602.18h7.187a.577.577,0,0,1,.577.577.577.577,0,0,1-.577.577h-7.187a.577.577,0,0,1-.577-.577A.577.577,0,0,1,1155.27-1602.18Z" transform="translate(-1154.693 1604.855)" fill="#1a1f22"/>
      <path id="Tracé_101" data-name="Tracé 101" d="M1211.981-1602.18h2.525a.577.577,0,0,1,.577.577.577.577,0,0,1-.577.577h-2.525a.577.577,0,0,1-.577-.577A.577.577,0,0,1,1211.981-1602.18Z" transform="translate(-1201.502 1604.855)" fill="#1a1f22"/>
    </g>
    <g id="Groupe_76" data-name="Groupe 76" transform="translate(543.993 -1972.58)">
      <g id="Groupe_75" data-name="Groupe 75" transform="translate(0)">
        <path id="Tracé_102" data-name="Tracé 102" d="M549.659-1761.094a.313.313,0,0,1-.3-.446l.541-1.56a.369.369,0,0,1,.343-.223l7.375.582.024-.068-6.049-5.117a.289.289,0,0,1-.087-.353l.106-.305a.289.289,0,0,1,.286-.223l7.924-.29.023-.068-6.163-4.074a.368.368,0,0,1-.132-.387l.541-1.559a.313.313,0,0,1,.513-.164l10.28,7.154a.345.345,0,0,1,.132.387l-.094.271a.3.3,0,0,1-.286.224l-8.731.372-.029.084,6.638,5.663a.3.3,0,0,1,.087.353l-.094.271a.345.345,0,0,1-.343.223Z" transform="translate(-549.333 1809.852)" fill="#1a1f22"/>
        <path id="Tracé_103" data-name="Tracé 103" d="M603-1844.317a.341.341,0,0,1-.067-.477l4.4-5.83a.341.341,0,0,1,.478-.067l1.175.886a.34.34,0,0,1,.067.477l-3.2,4.24,2.349,1.772,2.669-3.538a.353.353,0,0,1,.477-.067l1.189.9a.341.341,0,0,1,.067.478l-2.669,3.538,2.507,1.891,3.2-4.24a.341.341,0,0,1,.478-.067l1.174.886a.34.34,0,0,1,.067.478l-4.4,5.829a.34.34,0,0,1-.477.067Z" transform="translate(-593.518 1872.031)" fill="#1a1f22"/>
        <path id="Tracé_104" data-name="Tracé 104" d="M837.122-1969.885l-2.729.3a.341.341,0,0,1-.376-.3l-.159-1.462a.341.341,0,0,1,.3-.376l7.794-.85a.34.34,0,0,1,.376.3l.16,1.463a.34.34,0,0,1-.3.375l-2.729.3,1.091,10.006a.353.353,0,0,1-.3.376l-1.658.181a.353.353,0,0,1-.376-.3Z" transform="translate(-784.174 1972.58)" fill="#1a1f22"/>
        <path id="Tracé_105" data-name="Tracé 105" d="M915.377-1971.809a.353.353,0,0,1,.392-.281l1.646.273a.341.341,0,0,1,.28.392l-.779,4.69,5.77.958.779-4.691a.341.341,0,0,1,.392-.28l1.628.27a.353.353,0,0,1,.281.392l-1.945,11.717a.353.353,0,0,1-.392.281l-1.628-.27a.341.341,0,0,1-.28-.392l.811-4.885-5.77-.958-.811,4.885a.34.34,0,0,1-.392.28l-1.646-.273a.353.353,0,0,1-.28-.392Z" transform="translate(-849.852 1972.179)" fill="#1a1f22"/>
        <path id="Tracé_106" data-name="Tracé 106" d="M1056.451-1913.4a.34.34,0,0,1,.476-.074l1.333.973a.353.353,0,0,1,.074.476l-5.933,8.13,3.7,2.7a.34.34,0,0,1,.074.476l-.867,1.188a.341.341,0,0,1-.476.074l-5.3-3.871a.341.341,0,0,1-.074-.476Z" transform="translate(-962.069 1923.845)" fill="#1a1f22"/>
        <path id="Tracé_107" data-name="Tracé 107" d="M1159.109-1775.177a.34.34,0,0,1,.446.183l1.583,3.791a3.516,3.516,0,0,1-1.6,4.772,3.418,3.418,0,0,1-3.393-.723,3.223,3.223,0,0,1-1.8,3.279,3.627,3.627,0,0,1-4.7-2.276l-1.672-4.007a.341.341,0,0,1,.183-.446Zm-7.594,8.03a1.6,1.6,0,0,0,2.129.861,1.737,1.737,0,0,0,.735-2.29l-.753-1.8-2.947,1.23Zm4.672-2.222a1.538,1.538,0,0,0,2.084.8,1.465,1.465,0,0,0,.813-2.012l-.739-1.772-2.9,1.209Z" transform="translate(-1043.414 1809.668)" fill="#1a1f22"/>
        <path id="Tracé_108" data-name="Tracé 108" d="M690.861-1893.5a.517.517,0,0,0,.633-.032l1.239-.951a.318.318,0,0,0-.041-.556l-2.779-1.471-1.974-1.045-6.994-3.7a.3.3,0,0,0-.362.03l-.142.109a.322.322,0,0,0-.122.342l2.262,10.037.666,2.951a.311.311,0,0,0,.358.259.363.363,0,0,0,.168-.075l1.24-.952a.542.542,0,0,0,.194-.6l-.331-1.42,0,0-.056-.233a.016.016,0,0,1,0-.01,14.809,14.809,0,0,1,3.2-4.212.013.013,0,0,1,.015,0Zm-6.695-.117a.013.013,0,0,1-.023,0l-.945-3.935.043-.033,2.916,1.554a.013.013,0,0,1,0,.021A16.8,16.8,0,0,0,684.166-1893.62Z" transform="translate(-657.439 1913.753)" fill="#1a1f22"/>
        <path id="Tracé_109" data-name="Tracé 109" d="M1103.469-1828.29l1.417-2.807,1.007-1.994,3.568-7.064a.3.3,0,0,0-.037-.361l-.112-.14a.321.321,0,0,0-.344-.115l-9.992,2.454-2.938.722a.311.311,0,0,0-.252.363.359.359,0,0,0,.078.167l.975,1.222a.541.541,0,0,0,.606.182l1.414-.357,0,0,.232-.061a.014.014,0,0,1,.009,0,14.807,14.807,0,0,1,4.273,3.119.013.013,0,0,1,0,.015l-.8,1.577-.017-.021-.662,1.3a.517.517,0,0,0,.044.632l.974,1.22A.318.318,0,0,0,1103.469-1828.29Zm-1.586-8.5a.013.013,0,0,1,0-.023l3.916-1.02.034.043-1.5,2.945a.013.013,0,0,1-.021,0A16.785,16.785,0,0,0,1101.883-1836.787Z" transform="translate(-1000.364 1863.796)" fill="#1a1f22"/>
        <path id="Tracé_110" data-name="Tracé 110" d="M760.083-1941.929a.309.309,0,0,0,.016-.57,12.034,12.034,0,0,1-4.186-3.259l.026-.012a3.957,3.957,0,0,0,1.174-4.334,3.885,3.885,0,0,0-5.034-2.192l-4.785,1.844a.341.341,0,0,0-.2.441l4.27,11.077a.34.34,0,0,0,.44.2l1.527-.589a.355.355,0,0,0,.2-.458l-1.635-4.242a.013.013,0,0,1,.007-.017l1.829-.705a.013.013,0,0,1,.015,0,14.3,14.3,0,0,0,3.913,3.567.431.431,0,0,0,.381.034Zm-10.13-7.242,2.679-1.032a1.793,1.793,0,0,1,2.345,1.043,1.826,1.826,0,0,1-1.025,2.273l-2.715,1.046a.013.013,0,0,1-.017-.008l-1.274-3.305A.013.013,0,0,1,749.953-1949.171Z" transform="translate(-712.546 1956.057)" fill="#1a1f22"/>
      </g>
      <circle id="Ellipse_47" data-name="Ellipse 47" cx="1.387" cy="1.387" r="1.387" transform="translate(108.256 49.299)" fill="#1a1f22"/>
    </g>
    <g id="Groupe_78" data-name="Groupe 78" transform="translate(553.836 -1893.725)">
      <g id="Groupe_77" data-name="Groupe 77" transform="translate(0)">
        <path id="Tracé_111" data-name="Tracé 111" d="M606.019-1519.591l.744.094a.2.2,0,0,1,.145.229,2.35,2.35,0,0,0,.024,1.2.493.493,0,0,0,.642.322c.305-.126.433-.475.426-1.05a2.044,2.044,0,0,1,1.027-2.07,1.63,1.63,0,0,1,2.136,1.085,2.921,2.921,0,0,1,.094,1.779c-.015.108-.152.147-.215.139l-.712-.141c-.1-.018-.22-.122-.2-.208a2.464,2.464,0,0,0,.009-1.219.455.455,0,0,0-.559-.306c-.269.11-.383.412-.38,1.082a2.08,2.08,0,0,1-1.054,2.149,1.726,1.726,0,0,1-2.209-1.1,2.494,2.494,0,0,1-.112-1.865C605.873-1519.573,605.893-1519.607,606.019-1519.591Z" transform="translate(-605.703 1520.982)" fill="#161615"/>
        <path id="Tracé_112" data-name="Tracé 112" d="M623.5-1492.453a.155.155,0,0,1,.2.056l.465.812a.149.149,0,0,1-.056.2l-1.719.984,1.117,1.95,1.719-.984a.149.149,0,0,1,.2.055l.465.812a.155.155,0,0,1-.055.2l-4.515,2.584a.154.154,0,0,1-.2-.055l-.465-.812a.149.149,0,0,1,.055-.2l1.794-1.027-1.117-1.95L619.6-1488.8a.149.149,0,0,1-.2-.055l-.464-.812a.154.154,0,0,1,.055-.2Z" transform="translate(-616.607 1497.449)" fill="#161615"/>
        <path id="Tracé_113" data-name="Tracé 113" d="M652.528-1451.762a2.824,2.824,0,0,1-.473,3.978,2.81,2.81,0,0,1-3.967-.471,2.8,2.8,0,0,1,.466-3.962A2.817,2.817,0,0,1,652.528-1451.762Zm-3.453,2.727a1.575,1.575,0,0,0,2.2.264,1.583,1.583,0,0,0,.266-2.212,1.582,1.582,0,0,0-2.209-.248A1.573,1.573,0,0,0,649.075-1449.035Z" transform="translate(-640.18 1464.735)" fill="#161615"/>
        <path id="Tracé_114" data-name="Tracé 114" d="M676.81-1424.479a.15.15,0,0,1,.211,0l1.362,1.316a1.757,1.757,0,0,1,.058,2.472,1.767,1.767,0,0,1-2.489.053l-.593-.573-1.283,1.328a.155.155,0,0,1-.211,0l-.667-.644a.149.149,0,0,1,0-.211Zm-.116,2.958a.617.617,0,0,0,.878-.015.6.6,0,0,0-.042-.85l-.537-.519-.836.864Z" transform="translate(-661.375 1441.368)" fill="#161615"/>
        <path id="Tracé_115" data-name="Tracé 115" d="M703.634-1401.983a.149.149,0,0,1,.209-.028l1.507,1.147a1.758,1.758,0,0,1,.349,2.448,1.767,1.767,0,0,1-2.465.346l-.657-.5-1.119,1.47a.155.155,0,0,1-.209.028l-.738-.562a.149.149,0,0,1-.028-.209Zm.232,2.952a.617.617,0,0,0,.87-.118.6.6,0,0,0-.142-.839l-.594-.452-.728.957Z" transform="translate(-683.907 1422.811)" fill="#161615"/>
        <path id="Tracé_116" data-name="Tracé 116" d="M732.868-1382.588a.155.155,0,0,1,.206-.049l.8.495a.155.155,0,0,1,.049.205l-2.73,4.428a.154.154,0,0,1-.206.049l-.8-.495a.155.155,0,0,1-.049-.205Z" transform="translate(-708.393 1406.811)" fill="#161615"/>
        <path id="Tracé_117" data-name="Tracé 117" d="M754.147-1371.836a.148.148,0,0,1,.2-.065l.178.084,1.554,4.064.007,0,1.187-2.524a.149.149,0,0,1,.2-.072l.853.4a.155.155,0,0,1,.072.2l-2.249,4.786a.148.148,0,0,1-.2.064l-.114-.053a.227.227,0,0,1-.076-.079l-1.482-4.143-.007,0-1.247,2.652a.149.149,0,0,1-.2.072l-.846-.4a.155.155,0,0,1-.072-.2Z" transform="translate(-726.365 1397.944)" fill="#161615"/>
        <path id="Tracé_118" data-name="Tracé 118" d="M799.281-1352.064a3.033,3.033,0,0,1,1.618,1.266.138.138,0,0,1-.047.208l-.786.45a.167.167,0,0,1-.205-.054,1.444,1.444,0,0,0-.874-.661,1.574,1.574,0,0,0-1.944,1.066,1.566,1.566,0,0,0,1.032,1.949,1.855,1.855,0,0,0,.706.084l.133-.436-.473-.144a.143.143,0,0,1-.1-.179l.227-.744a.144.144,0,0,1,.186-.1l1.511.461a.148.148,0,0,1,.092.184l-.609,2.024a.194.194,0,0,1-.1.1,3.968,3.968,0,0,1-2.013-.08,2.8,2.8,0,0,1-1.877-3.513A2.815,2.815,0,0,1,799.281-1352.064Z" transform="translate(-762.468 1381.662)" fill="#161615"/>
        <path id="Tracé_119" data-name="Tracé 119" d="M862.059-1340.964a.149.149,0,0,1,.161-.137l2.342.189a1.709,1.709,0,0,1,1.571,1.83,1.724,1.724,0,0,1-1.286,1.481l.912,2.076a.149.149,0,0,1-.151.216l-1.042-.084a.145.145,0,0,1-.12-.081l-.874-2.16-.54-.044-.162,2a.154.154,0,0,1-.161.137l-.932-.075a.149.149,0,0,1-.137-.161Zm2.212,2.386a.63.63,0,0,0,.646-.579.6.6,0,0,0-.547-.643l-1.159-.094-.1,1.222Z" transform="translate(-816.95 1372.51)" fill="#161615"/>
        <path id="Tracé_120" data-name="Tracé 120" d="M901.07-1339.918a.149.149,0,0,1,.142-.156l3.249-.153a.149.149,0,0,1,.156.142l.04.856a.149.149,0,0,1-.142.156l-2.174.1.046.974,1.79-.084a.154.154,0,0,1,.156.142l.04.856a.149.149,0,0,1-.142.156l-1.79.084.05,1.06,2.174-.1a.149.149,0,0,1,.156.142l.04.856a.149.149,0,0,1-.142.156l-3.25.153a.149.149,0,0,1-.156-.142Z" transform="translate(-849.495 1371.789)" fill="#161615"/>
        <path id="Tracé_121" data-name="Tracé 121" d="M934.076-1338.662l.259-.7a.2.2,0,0,1,.256-.09,2.344,2.344,0,0,0,1.171.246.492.492,0,0,0,.459-.553c-.054-.326-.366-.529-.927-.652-.71-.154-1.633-.536-1.785-1.467a1.63,1.63,0,0,1,1.538-1.837,2.922,2.922,0,0,1,1.755.309c.1.039.109.181.087.24l-.3.662c-.04.094-.168.187-.247.144a2.464,2.464,0,0,0-1.185-.283.456.456,0,0,0-.423.475c.047.287.315.466.969.613s1.683.456,1.856,1.51a1.726,1.726,0,0,1-1.566,1.905,2.5,2.5,0,0,1-1.842-.311C934.06-1338.516,934.032-1338.543,934.076-1338.662Z" transform="translate(-876.252 1374.697)" fill="#161615"/>
        <path id="Tracé_122" data-name="Tracé 122" d="M965.424-1350.519a.149.149,0,0,1,.1-.185l1.821-.522a1.757,1.757,0,0,1,2.171,1.184,1.768,1.768,0,0,1-1.2,2.183l-.793.228.509,1.775a.155.155,0,0,1-.1.185l-.891.256a.149.149,0,0,1-.185-.1Zm2.505,1.578a.617.617,0,0,0,.426-.768.6.6,0,0,0-.757-.388l-.718.206.331,1.156Z" transform="translate(-902.607 1380.924)" fill="#161615"/>
        <path id="Tracé_123" data-name="Tracé 123" d="M1001.614-1364.653a2.824,2.824,0,0,1,3.731,1.457,2.81,2.81,0,0,1-1.453,3.721,2.8,2.8,0,0,1-3.718-1.446A2.817,2.817,0,0,1,1001.614-1364.653Zm1.772,4.027a1.574,1.574,0,0,0,.808-2.064,1.582,1.582,0,0,0-2.074-.812,1.581,1.581,0,0,0-.795,2.075A1.573,1.573,0,0,0,1003.387-1360.626Z" transform="translate(-931.093 1392.15)" fill="#161615"/>
        <path id="Tracé_124" data-name="Tracé 124" d="M1035.354-1387.148a.147.147,0,0,1,.051-.2l.166-.105,4.262.875.006,0-1.49-2.358a.149.149,0,0,1,.047-.206l.8-.5a.155.155,0,0,1,.206.047l2.826,4.469a.148.148,0,0,1-.051.2l-.106.067a.235.235,0,0,1-.107.021l-4.29-.978-.007,0,1.566,2.477a.149.149,0,0,1-.046.206l-.79.5a.155.155,0,0,1-.206-.046Z" transform="translate(-960.315 1412.6)" fill="#161615"/>
        <path id="Tracé_125" data-name="Tracé 125" d="M1074.153-1402.644l-.133-.738a.2.2,0,0,1,.175-.207,2.348,2.348,0,0,0,1.134-.38.492.492,0,0,0,.116-.709c-.211-.254-.583-.271-1.129-.093a2.045,2.045,0,0,1-2.282-.362,1.63,1.63,0,0,1,.4-2.362,2.924,2.924,0,0,1,1.67-.621c.108-.018.186.1.2.163l.078.721c.013.1-.051.246-.14.25a2.46,2.46,0,0,0-1.166.355.456.456,0,0,0-.125.625c.186.223.508.242,1.146.039a2.08,2.08,0,0,1,2.366.364,1.727,1.727,0,0,1-.387,2.436,2.5,2.5,0,0,1-1.747.664C1074.213-1402.51,1074.175-1402.519,1074.153-1402.644Z" transform="translate(-990.322 1427.826)" fill="#161615"/>
        <path id="Tracé_126" data-name="Tracé 126" d="M1102.635-1422.634l-2.154-5.419a.159.159,0,0,1,.029-.156l.054-.057a.16.16,0,0,1,.155-.037l5.532,1.844a.139.139,0,0,1,.057.237l-.6.634a.264.264,0,0,1-.332.065l-.646-.221-1.468,1.553.263.637a.293.293,0,0,1-.057.335l-.594.628A.139.139,0,0,1,1102.635-1422.634Zm1-3.5-1.352-.457-.005.006.538,1.318Z" transform="translate(-1014.079 1444.492)" fill="#161615"/>
        <path id="Tracé_127" data-name="Tracé 127" d="M1118.433-1457.914a.149.149,0,0,1-.032-.208l1.08-1.478a1.58,1.58,0,0,1,2.177-.5,1.562,1.562,0,0,1,.464,1.468,1.486,1.486,0,0,1,1.656-.095,1.6,1.6,0,0,1,.214,2.277l-1.15,1.573a.149.149,0,0,1-.209.033Zm2.766-.256a.56.56,0,0,0-.132-.778.533.533,0,0,0-.756.129l-.362.495.888.649Zm1.792,1.183a.57.57,0,0,0-.13-.8.628.628,0,0,0-.824.2l-.375.514.907.663Z" transform="translate(-1028.853 1470.942)" fill="#161615"/>
        <path id="Tracé_128" data-name="Tracé 128" d="M1137.963-1480a.149.149,0,0,1-.056-.2l.462-.813a.155.155,0,0,1,.2-.056l3.649,2.072.923-1.626a.15.15,0,0,1,.2-.056l.745.423a.149.149,0,0,1,.056.2l-1.459,2.569a.149.149,0,0,1-.2.056Z" transform="translate(-1044.961 1488.057)" fill="#161615"/>
        <path id="Tracé_129" data-name="Tracé 129" d="M1152.068-1516.8a.149.149,0,0,1-.079-.2l1.276-2.992a.149.149,0,0,1,.2-.079l.788.336a.149.149,0,0,1,.079.2l-.854,2,.9.382.7-1.648a.154.154,0,0,1,.2-.079l.788.336a.149.149,0,0,1,.079.2l-.7,1.647.976.416.854-2a.15.15,0,0,1,.2-.079l.787.336a.149.149,0,0,1,.079.2l-1.276,2.992a.149.149,0,0,1-.2.079Z" transform="translate(-1056.59 1520.235)" fill="#161615"/>
      </g>
    </g>
  </g>
</svg>
