<svg xmlns="http://www.w3.org/2000/svg" width="47.456" height="16.146" viewBox="0 0 47.456 16.146">
  <path id="Union_2" data-name="Union 2" d="M-13487.749,11.145l1.32-3.5-3.728-9.322h3.5l1.894,5.727,1.793-5.727h3.425l-4.827,12.826Zm-35.914-4.481V7.822H-13527V-5h3.337V-.414a3.5,3.5,0,0,1,2.883-1.477c2.264,0,4.213,1.881,4.213,4.919v.034c0,3.093-1.949,4.97-4.2,4.97A3.573,3.573,0,0,1-13523.663,6.664Zm-.071-3.619v.034a2.011,2.011,0,0,0,1.932,2.163,2,2,0,0,0,1.952-2.163V3.045A2.006,2.006,0,0,0-13521.8.9,2,2,0,0,0-13523.734,3.045Zm8.219.071V3.079a4.766,4.766,0,0,1,4.794-4.97A4.5,4.5,0,0,1-13506,2.278l-1.718,1.714h-4.586a1.963,1.963,0,0,0,2.054,1.565,2.518,2.518,0,0,0,1.32-.353l-2.723,2.726A4.681,4.681,0,0,1-13515.516,3.116Zm3.161-.825h3.3c-.125-1.056-.736-1.725-1.653-1.725C-13511.58.567-13512.178,1.253-13512.354,2.292Zm18.355,5.53V2.658c0-1.035-.513-1.579-1.3-1.579s-1.372.543-1.372,1.579V7.822h-3.337V2.658c0-1.035-.509-1.579-1.3-1.579s-1.352.543-1.352,1.579V7.822H-13506V3.907l5.771-5.775a2.948,2.948,0,0,1,.394-.024,2.9,2.9,0,0,1,2.739,1.548,4,4,0,0,1,3.182-1.548c2.017,0,3.249,1.263,3.249,3.48V7.822Z" transform="translate(13527 5.001)" fill="#22292d"/>
</svg>
