<svg xmlns="http://www.w3.org/2000/svg" width="106.435" height="100" viewBox="0 0 106.435 100">
  <g id="Groupe_81" data-name="Groupe 81" transform="translate(-542.863 1972.58)">
    <g id="Groupe_72" data-name="Groupe 72" transform="translate(576.065 -1947.746)">
      <path id="Tracé_89" data-name="Tracé 89" d="M803.346-1759.72l-9.523-24.9-.3-.787L789-1797.248v-10.262h-10.85v10.262L765.512-1764.2h0v0l-.083.219-1.631,4.263a3.639,3.639,0,0,0,.694,3.74,3.593,3.593,0,0,0,2.713,1.21h32.735a3.649,3.649,0,0,0,3.005-1.58A3.651,3.651,0,0,0,803.346-1759.72Zm-1.48-1.087h0a1.735,1.735,0,0,1-1.037.311,1.734,1.734,0,0,1-1.036-.311,2.706,2.706,0,0,0-1.541-.449,2.707,2.707,0,0,0-1.541.449,1.736,1.736,0,0,1-1.037.311,1.735,1.735,0,0,1-1.036-.311,2.7,2.7,0,0,0-1.541-.449,2.708,2.708,0,0,0-1.542.449,1.735,1.735,0,0,1-1.036.311,1.735,1.735,0,0,1-1.036-.311,2.708,2.708,0,0,0-1.542-.449,2.708,2.708,0,0,0-1.54.448,2.454,2.454,0,0,1-.436.22,21.443,21.443,0,0,0-3.535-2.327,2.088,2.088,0,0,1,.357-.028,1.739,1.739,0,0,1,1.037.311,2.708,2.708,0,0,0,1.54.448,2.707,2.707,0,0,0,1.54-.448,1.737,1.737,0,0,1,1.036-.311,1.739,1.739,0,0,1,1.037.311,2.709,2.709,0,0,0,1.54.448,2.709,2.709,0,0,0,1.54-.448,1.738,1.738,0,0,1,1.037-.311,1.737,1.737,0,0,1,1.036.311,2.708,2.708,0,0,0,1.541.448,2.71,2.71,0,0,0,1.541-.448,1.737,1.737,0,0,1,1.036-.311,1.737,1.737,0,0,1,1.036.311,2.708,2.708,0,0,0,1.541.448,3.1,3.1,0,0,0,.5-.038Zm-22.726-36.257v-9.451H788v9.451l4.452,11.644h-5.219a.5.5,0,0,0-.5.5.5.5,0,0,0,.5.5h5.6l8.124,21.245c-.042,0-.084,0-.129,0a1.737,1.737,0,0,1-1.036-.311,2.707,2.707,0,0,0-1.54-.448,2.709,2.709,0,0,0-1.54.448,1.739,1.739,0,0,1-1.037.311,1.737,1.737,0,0,1-1.036-.311,2.707,2.707,0,0,0-1.54-.448,2.71,2.71,0,0,0-1.541.448,1.738,1.738,0,0,1-1.036.311,1.737,1.737,0,0,1-1.036-.311,2.711,2.711,0,0,0-1.541-.448,2.707,2.707,0,0,0-1.54.448,1.737,1.737,0,0,1-1.036.311,1.738,1.738,0,0,1-1.036-.311,2.71,2.71,0,0,0-1.541-.448,2.707,2.707,0,0,0-1.538.447,21.286,21.286,0,0,0-2.745-1.015v-4.135a3.566,3.566,0,0,0,2.583,1.106v-.994a2.586,2.586,0,0,1-2.583-2.579v-2.008a3.566,3.566,0,0,0,2.583,1.106V-1773a2.586,2.586,0,0,1-2.583-2.579v0h-.994A2.586,2.586,0,0,1,774.93-1773v.994a3.566,3.566,0,0,0,2.583-1.107v2h0a2.586,2.586,0,0,1-2.583,2.583v.994a3.566,3.566,0,0,0,2.583-1.107v3.87a21.46,21.46,0,0,0-5.03-.592,21.434,21.434,0,0,0-5.765.785Zm-11.936,41.3c-.068,0-.134,0-.2-.007h-.009a2.671,2.671,0,0,1-.391-.058H766.6q-.095-.022-.187-.05h0a2.574,2.574,0,0,1-.357-.141l-.016-.007a2.565,2.565,0,0,1-.324-.189l-.01-.007a14.015,14.015,0,0,1,5.89-1.714q.444-.028.89-.028a14.078,14.078,0,0,1,3.53.447q.246.064.489.136h0a13.912,13.912,0,0,1,3.542,1.621Zm14.552,0a14.918,14.918,0,0,0-4.97-2.574,14.923,14.923,0,0,0-1.586-.38,15.134,15.134,0,0,0-2.718-.245,15.018,15.018,0,0,0-7.5,2,2.643,2.643,0,0,1-.276-2.356,17.036,17.036,0,0,1,7.773-1.85,17.1,17.1,0,0,1,7.286,1.61l.074.034a17.273,17.273,0,0,1,3.084,1.877h0a17.384,17.384,0,0,1,2.093,1.883Zm4.6,0a18.409,18.409,0,0,0-2.824-2.674h0a18.255,18.255,0,0,0-3.339-2.021l-.1-.047h0a18.083,18.083,0,0,0-7.606-1.657,18.314,18.314,0,0,0-7.263,1.5l1.051-2.749a20.409,20.409,0,0,1,6.212-.961,20.251,20.251,0,0,1,8.588,1.886,20.407,20.407,0,0,1,4.465,2.822,20.612,20.612,0,0,1,2.017,1.92,20.49,20.49,0,0,1,1.6,1.976Zm15.77-1.148a2.618,2.618,0,0,1-2.186,1.149h-9.58q-.427-.643-.9-1.256a2.667,2.667,0,0,0,1.063.2,2.707,2.707,0,0,0,1.54-.448,1.738,1.738,0,0,1,1.037-.311,1.735,1.735,0,0,1,1.036.311,2.709,2.709,0,0,0,1.541.448,2.711,2.711,0,0,0,1.541-.448,1.735,1.735,0,0,1,1.036-.311,1.735,1.735,0,0,1,1.036.311,2.709,2.709,0,0,0,1.541.448,2.665,2.665,0,0,0,1.486-.416A2.763,2.763,0,0,1,802.124-1756.913Zm-.259-1.213a1.737,1.737,0,0,1-1.036.311,1.736,1.736,0,0,1-1.036-.311,2.707,2.707,0,0,0-1.54-.448,2.708,2.708,0,0,0-1.54.448,1.738,1.738,0,0,1-1.037.311,1.736,1.736,0,0,1-1.036-.311,2.707,2.707,0,0,0-1.54-.448,2.71,2.71,0,0,0-1.541.448,1.736,1.736,0,0,1-1.036.311,1.736,1.736,0,0,1-1.036-.311,2.707,2.707,0,0,0-1.347-.442c-.427-.456-.876-.9-1.344-1.317l.114-.067a1.736,1.736,0,0,1,1.035-.311,1.737,1.737,0,0,1,1.037.311,2.7,2.7,0,0,0,1.54.449,2.7,2.7,0,0,0,1.541-.449,1.736,1.736,0,0,1,1.037-.311,1.735,1.735,0,0,1,1.036.311,2.705,2.705,0,0,0,1.541.449,2.708,2.708,0,0,0,1.542-.449,1.735,1.735,0,0,1,1.036-.311,1.735,1.735,0,0,1,1.036.311,2.705,2.705,0,0,0,1.541.449,2.624,2.624,0,0,0,1.4-.365l.192.5a2.678,2.678,0,0,1,.177.9A3.112,3.112,0,0,0,801.865-1758.126Z" transform="translate(-763.555 1807.51)" fill="#f9f3ed"/>
      <path id="Tracé_90" data-name="Tracé 90" d="M868.072-1675.481h6.192a.5.5,0,0,0,.5-.5.5.5,0,0,0-.5-.5h-6.192a.5.5,0,0,0-.5.5A.5.5,0,0,0,868.072-1675.481Z" transform="translate(-851.926 1696.188)" fill="#f9f3ed"/>
      <path id="Tracé_91" data-name="Tracé 91" d="M924.783-1675.481h2.176a.5.5,0,0,0,.5-.5.5.5,0,0,0-.5-.5h-2.176a.5.5,0,0,0-.5.5A.5.5,0,0,0,924.783-1675.481Z" transform="translate(-900.105 1696.188)" fill="#f9f3ed"/>
      <path id="Tracé_92" data-name="Tracé 92" d="M890.317-1660.681h-2.175a.5.5,0,0,0-.5.5.5.5,0,0,0,.5.5h2.175a.5.5,0,0,0,.5-.5A.5.5,0,0,0,890.317-1660.681Z" transform="translate(-868.976 1682.771)" fill="#f9f3ed"/>
      <path id="Tracé_93" data-name="Tracé 93" d="M912.983-1607.854a2.586,2.586,0,0,1,2.583,2.583h.994a2.586,2.586,0,0,1,2.583-2.583v-.994a3.578,3.578,0,0,0-3.08,1.761,3.578,3.578,0,0,0-3.08-1.761Z" transform="translate(-890.503 1638.735)" fill="#f9f3ed"/>
    </g>
    <g id="Groupe_73" data-name="Groupe 73" transform="translate(542.863 -1919.16)">
      <path id="Tracé_94" data-name="Tracé 94" d="M543.36-1616.506h6.192a.5.5,0,0,0,.5-.5.5.5,0,0,0-.5-.5H543.36a.5.5,0,0,0-.5.5A.5.5,0,0,0,543.36-1616.506Z" transform="translate(-542.863 1617.5)" fill="#f9f3ed"/>
      <path id="Tracé_95" data-name="Tracé 95" d="M600.071-1616.506h2.175a.5.5,0,0,0,.5-.5.5.5,0,0,0-.5-.5h-2.175a.5.5,0,0,0-.5.5A.5.5,0,0,0,600.071-1616.506Z" transform="translate(-591.042 1617.5)" fill="#f9f3ed"/>
      <path id="Tracé_96" data-name="Tracé 96" d="M597.429-1602.18h-6.192a.5.5,0,0,0-.5.5.5.5,0,0,0,.5.5h6.192a.5.5,0,0,0,.5-.5A.5.5,0,0,0,597.429-1602.18Z" transform="translate(-583.537 1604.485)" fill="#f9f3ed"/>
      <path id="Tracé_97" data-name="Tracé 97" d="M563.4-1602.18h-2.176a.5.5,0,0,0-.5.5.5.5,0,0,0,.5.5H563.4a.5.5,0,0,0,.5-.5A.5.5,0,0,0,563.4-1602.18Z" transform="translate(-558.039 1604.485)" fill="#f9f3ed"/>
    </g>
    <g id="Groupe_74" data-name="Groupe 74" transform="translate(634.909 -1919.16)">
      <path id="Tracé_98" data-name="Tracé 98" d="M1209.258-1616.506h-6.192a.5.5,0,0,1-.5-.5.5.5,0,0,1,.5-.5h6.192a.5.5,0,0,1,.5.5A.5.5,0,0,1,1209.258-1616.506Z" transform="translate(-1195.366 1617.5)" fill="#f9f3ed"/>
      <path id="Tracé_99" data-name="Tracé 99" d="M1175.229-1616.506h-2.176a.5.5,0,0,1-.5-.5.5.5,0,0,1,.5-.5h2.176a.5.5,0,0,1,.5.5A.5.5,0,0,1,1175.229-1616.506Z" transform="translate(-1169.869 1617.5)" fill="#f9f3ed"/>
      <path id="Tracé_100" data-name="Tracé 100" d="M1155.19-1602.18h6.192a.5.5,0,0,1,.5.5.5.5,0,0,1-.5.5h-6.192a.5.5,0,0,1-.5-.5A.5.5,0,0,1,1155.19-1602.18Z" transform="translate(-1154.693 1604.485)" fill="#f9f3ed"/>
      <path id="Tracé_101" data-name="Tracé 101" d="M1211.9-1602.18h2.176a.5.5,0,0,1,.5.5.5.5,0,0,1-.5.5H1211.9a.5.5,0,0,1-.5-.5A.5.5,0,0,1,1211.9-1602.18Z" transform="translate(-1202.872 1604.485)" fill="#f9f3ed"/>
    </g>
    <g id="Groupe_76" data-name="Groupe 76" transform="translate(543.836 -1972.58)">
      <g id="Groupe_75" data-name="Groupe 75" transform="translate(0)">
        <path id="Tracé_102" data-name="Tracé 102" d="M549.614-1763.077a.27.27,0,0,1-.259-.384l.466-1.344a.318.318,0,0,1,.3-.192l6.354.5.02-.058-5.212-4.409a.249.249,0,0,1-.075-.3l.091-.263a.249.249,0,0,1,.247-.192l6.827-.25.02-.059-5.31-3.51a.317.317,0,0,1-.113-.334l.466-1.343a.269.269,0,0,1,.442-.142l8.857,6.163a.3.3,0,0,1,.113.334l-.081.234a.263.263,0,0,1-.247.193l-7.522.32-.025.073,5.719,4.879a.263.263,0,0,1,.075.3l-.081.234a.3.3,0,0,1-.3.192Z" transform="translate(-549.333 1805.087)" fill="#f9f3ed"/>
        <path id="Tracé_103" data-name="Tracé 103" d="M602.982-1845.209a.294.294,0,0,1-.057-.411l3.789-5.023a.294.294,0,0,1,.411-.057l1.012.764a.293.293,0,0,1,.057.411l-2.756,3.653,2.024,1.526,2.3-3.048a.3.3,0,0,1,.411-.058l1.024.773a.294.294,0,0,1,.058.411l-2.3,3.048,2.16,1.629,2.756-3.653a.294.294,0,0,1,.411-.058l1.012.764a.293.293,0,0,1,.058.411l-3.789,5.022a.293.293,0,0,1-.411.057Z" transform="translate(-594.812 1869.087)" fill="#f9f3ed"/>
        <path id="Tracé_104" data-name="Tracé 104" d="M836.67-1970.259l-2.351.257a.294.294,0,0,1-.324-.26l-.137-1.26a.294.294,0,0,1,.26-.324l6.715-.732a.293.293,0,0,1,.324.26l.138,1.26a.293.293,0,0,1-.26.324l-2.351.256.94,8.621a.3.3,0,0,1-.26.324l-1.429.156a.3.3,0,0,1-.324-.26Z" transform="translate(-791.051 1972.58)" fill="#f9f3ed"/>
        <path id="Tracé_105" data-name="Tracé 105" d="M915.107-1971.848a.3.3,0,0,1,.338-.242l1.418.235a.293.293,0,0,1,.242.338l-.671,4.041,4.971.825.671-4.041a.294.294,0,0,1,.338-.242l1.4.233a.3.3,0,0,1,.242.338l-1.676,10.1a.3.3,0,0,1-.338.242l-1.4-.233a.294.294,0,0,1-.242-.338l.7-4.209-4.972-.825-.7,4.209a.293.293,0,0,1-.338.242l-1.418-.235a.3.3,0,0,1-.242-.338Z" transform="translate(-858.652 1972.167)" fill="#f9f3ed"/>
        <path id="Tracé_106" data-name="Tracé 106" d="M1055.473-1913.415a.293.293,0,0,1,.41-.064l1.149.838a.3.3,0,0,1,.064.411l-5.112,7,3.184,2.324a.293.293,0,0,1,.064.41l-.747,1.024a.294.294,0,0,1-.41.064l-4.57-3.335a.293.293,0,0,1-.064-.41Z" transform="translate(-974.154 1922.418)" fill="#f9f3ed"/>
        <path id="Tracé_107" data-name="Tracé 107" d="M1157.563-1775.181a.293.293,0,0,1,.384.158l1.364,3.267a3.029,3.029,0,0,1-1.383,4.112,2.945,2.945,0,0,1-2.923-.622,2.777,2.777,0,0,1-1.551,2.825,3.125,3.125,0,0,1-4.051-1.961l-1.441-3.452a.293.293,0,0,1,.158-.384Zm-6.543,6.919a1.379,1.379,0,0,0,1.834.742,1.5,1.5,0,0,0,.634-1.973l-.649-1.555-2.539,1.06Zm4.025-1.915a1.325,1.325,0,0,0,1.8.691,1.262,1.262,0,0,0,.7-1.733l-.637-1.526-2.5,1.042Z" transform="translate(-1057.882 1804.898)" fill="#f9f3ed"/>
        <path id="Tracé_108" data-name="Tracé 108" d="M689.4-1894.584a.445.445,0,0,0,.545-.028l1.067-.819a.274.274,0,0,0-.035-.479l-2.394-1.267-1.7-.9-6.026-3.191a.261.261,0,0,0-.312.026l-.122.094a.277.277,0,0,0-.105.295l1.949,8.648.574,2.542a.268.268,0,0,0,.308.224.314.314,0,0,0,.145-.065l1.069-.82a.467.467,0,0,0,.168-.519l-.285-1.224h0l-.048-.2a.014.014,0,0,1,0-.008,12.758,12.758,0,0,1,2.758-3.629.011.011,0,0,1,.013,0Zm-5.768-.1a.011.011,0,0,1-.02,0l-.814-3.39.037-.029,2.512,1.339a.011.011,0,0,1,0,.018A14.476,14.476,0,0,0,683.632-1894.684Z" transform="translate(-660.605 1912.031)" fill="#f9f3ed"/>
        <path id="Tracé_109" data-name="Tracé 109" d="M1102.4-1830.019l1.221-2.418.868-1.718,3.074-6.086a.26.26,0,0,0-.032-.311l-.1-.121a.277.277,0,0,0-.3-.1l-8.609,2.115-2.531.622a.268.268,0,0,0-.217.312.312.312,0,0,0,.068.144l.84,1.053a.466.466,0,0,0,.522.157l1.218-.308,0,0,.2-.052a.011.011,0,0,1,.008,0,12.759,12.759,0,0,1,3.682,2.687.011.011,0,0,1,0,.013l-.691,1.359-.014-.018-.57,1.12a.445.445,0,0,0,.038.544l.84,1.052A.273.273,0,0,0,1102.4-1830.019Zm-1.366-7.32a.011.011,0,0,1,0-.02l3.374-.879.03.037-1.291,2.537a.011.011,0,0,1-.018,0A14.454,14.454,0,0,0,1101.038-1837.34Z" transform="translate(-1013.571 1860.61)" fill="#f9f3ed"/>
        <path id="Tracé_110" data-name="Tracé 110" d="M758.282-1943.4a.266.266,0,0,0,.014-.491,10.368,10.368,0,0,1-3.607-2.808l.022-.01a3.409,3.409,0,0,0,1.011-3.734,3.347,3.347,0,0,0-4.337-1.888l-4.123,1.589a.294.294,0,0,0-.168.38l3.679,9.544a.293.293,0,0,0,.38.168l1.316-.507a.306.306,0,0,0,.175-.394l-1.409-3.655a.011.011,0,0,1,.006-.015l1.576-.607a.011.011,0,0,1,.013,0,12.321,12.321,0,0,0,3.371,3.073.371.371,0,0,0,.328.029Zm-8.728-6.24,2.308-.89a1.545,1.545,0,0,1,2.02.9,1.573,1.573,0,0,1-.883,1.958l-2.339.9a.011.011,0,0,1-.015-.006l-1.1-2.848A.012.012,0,0,1,749.555-1949.64Z" transform="translate(-717.325 1955.573)" fill="#f9f3ed"/>
      </g>
      <circle id="Ellipse_47" data-name="Ellipse 47" cx="1.195" cy="1.195" r="1.195" transform="translate(93.272 42.475)" fill="#f9f3ed"/>
    </g>
    <g id="Groupe_78" data-name="Groupe 78" transform="translate(552.317 -1904.64)">
      <g id="Groupe_77" data-name="Groupe 77" transform="translate(0)">
        <path id="Tracé_111" data-name="Tracé 111" d="M605.975-1519.783l.641.081a.175.175,0,0,1,.125.2,2.025,2.025,0,0,0,.021,1.031.424.424,0,0,0,.553.278c.263-.108.373-.409.367-.9a1.761,1.761,0,0,1,.885-1.783,1.4,1.4,0,0,1,1.84.934,2.517,2.517,0,0,1,.081,1.533c-.013.093-.131.127-.185.12l-.613-.121c-.087-.016-.19-.105-.169-.179a2.124,2.124,0,0,0,.008-1.05.392.392,0,0,0-.481-.263c-.232.1-.33.355-.327.932a1.792,1.792,0,0,1-.908,1.852,1.487,1.487,0,0,1-1.9-.945,2.149,2.149,0,0,1-.1-1.607C605.849-1519.769,605.867-1519.8,605.975-1519.783Z" transform="translate(-605.703 1520.982)" fill="#f9f3ed"/>
        <path id="Tracé_112" data-name="Tracé 112" d="M622.867-1492.455a.133.133,0,0,1,.176.048l.4.7a.128.128,0,0,1-.048.176l-1.481.848.962,1.68,1.481-.847a.128.128,0,0,1,.176.048l.4.7a.133.133,0,0,1-.048.176L621-1486.7a.133.133,0,0,1-.175-.048l-.4-.7a.129.129,0,0,1,.048-.176l1.545-.885-.962-1.681-1.545.885a.128.128,0,0,1-.176-.048l-.4-.7a.133.133,0,0,1,.048-.176Z" transform="translate(-616.926 1496.76)" fill="#f9f3ed"/>
        <path id="Tracé_113" data-name="Tracé 113" d="M651.828-1451.911a2.433,2.433,0,0,1-.407,3.427,2.422,2.422,0,0,1-3.418-.406,2.416,2.416,0,0,1,.4-3.414A2.427,2.427,0,0,1,651.828-1451.911Zm-2.975,2.35a1.357,1.357,0,0,0,1.9.228,1.364,1.364,0,0,0,.229-1.906,1.363,1.363,0,0,0-1.9-.214A1.356,1.356,0,0,0,648.853-1449.561Z" transform="translate(-641.19 1463.088)" fill="#f9f3ed"/>
        <path id="Tracé_114" data-name="Tracé 114" d="M676.3-1424.485a.129.129,0,0,1,.182,0l1.173,1.134a1.514,1.514,0,0,1,.05,2.13,1.523,1.523,0,0,1-2.144.046l-.511-.494-1.106,1.144a.134.134,0,0,1-.182,0l-.575-.555a.128.128,0,0,1,0-.182Zm-.1,2.549a.532.532,0,0,0,.756-.013.516.516,0,0,0-.036-.732l-.462-.447-.72.745Z" transform="translate(-663.005 1439.036)" fill="#f9f3ed"/>
        <path id="Tracé_115" data-name="Tracé 115" d="M703.194-1401.991a.128.128,0,0,1,.18-.025l1.3.989a1.514,1.514,0,0,1,.3,2.109,1.523,1.523,0,0,1-2.124.3l-.566-.431-.964,1.266a.133.133,0,0,1-.18.024l-.636-.484a.129.129,0,0,1-.024-.181Zm.2,2.543a.532.532,0,0,0,.75-.1.516.516,0,0,0-.122-.723l-.512-.39-.628.824Z" transform="translate(-686.197 1419.936)" fill="#f9f3ed"/>
        <path id="Tracé_116" data-name="Tracé 116" d="M732.487-1382.6a.133.133,0,0,1,.177-.042l.692.426a.133.133,0,0,1,.042.177l-2.352,3.816a.133.133,0,0,1-.177.042l-.692-.426a.133.133,0,0,1-.042-.177Z" transform="translate(-711.4 1403.468)" fill="#f9f3ed"/>
        <path id="Tracé_117" data-name="Tracé 117" d="M753.834-1371.847a.127.127,0,0,1,.168-.056l.153.072,1.339,3.5.006,0,1.022-2.175a.129.129,0,0,1,.171-.062l.735.346a.133.133,0,0,1,.062.171l-1.938,4.123a.127.127,0,0,1-.168.056l-.1-.046a.2.2,0,0,1-.065-.068l-1.277-3.569-.006,0-1.074,2.285a.128.128,0,0,1-.171.062l-.729-.343a.133.133,0,0,1-.062-.171Z" transform="translate(-729.898 1394.342)" fill="#f9f3ed"/>
        <path id="Tracé_118" data-name="Tracé 118" d="M798.776-1352.081a2.613,2.613,0,0,1,1.394,1.091.119.119,0,0,1-.04.179l-.677.388a.143.143,0,0,1-.177-.047,1.245,1.245,0,0,0-.753-.569,1.357,1.357,0,0,0-1.675.919,1.349,1.349,0,0,0,.889,1.679,1.6,1.6,0,0,0,.608.072l.115-.375-.408-.124a.123.123,0,0,1-.088-.154l.2-.641a.124.124,0,0,1,.161-.085l1.3.4a.127.127,0,0,1,.079.159l-.525,1.744a.168.168,0,0,1-.083.088,3.418,3.418,0,0,1-1.734-.069,2.414,2.414,0,0,1-1.617-3.027A2.425,2.425,0,0,1,798.776-1352.081Z" transform="translate(-767.059 1377.583)" fill="#f9f3ed"/>
        <path id="Tracé_119" data-name="Tracé 119" d="M862-1340.983a.128.128,0,0,1,.139-.118l2.018.163a1.472,1.472,0,0,1,1.353,1.576,1.486,1.486,0,0,1-1.108,1.276l.786,1.789a.128.128,0,0,1-.131.186l-.9-.073a.125.125,0,0,1-.1-.069l-.753-1.861-.466-.038-.139,1.721a.133.133,0,0,1-.139.118l-.8-.065a.129.129,0,0,1-.118-.139Zm1.906,2.056a.543.543,0,0,0,.556-.5.519.519,0,0,0-.471-.554l-1-.081-.085,1.053Z" transform="translate(-823.135 1368.163)" fill="#f9f3ed"/>
        <path id="Tracé_120" data-name="Tracé 120" d="M901.07-1339.961a.128.128,0,0,1,.122-.134l2.8-.132a.128.128,0,0,1,.135.122l.035.737a.129.129,0,0,1-.122.135l-1.873.088.04.839,1.542-.073a.133.133,0,0,1,.135.122l.035.737a.128.128,0,0,1-.122.134l-1.542.073.043.913,1.873-.088a.128.128,0,0,1,.135.122l.035.737a.129.129,0,0,1-.122.135l-2.8.132a.129.129,0,0,1-.135-.122Z" transform="translate(-856.634 1367.421)" fill="#f9f3ed"/>
        <path id="Tracé_121" data-name="Tracé 121" d="M933.994-1339.366l.223-.606a.175.175,0,0,1,.221-.077,2.019,2.019,0,0,0,1.009.212.424.424,0,0,0,.4-.476c-.046-.281-.315-.456-.8-.562-.612-.133-1.407-.462-1.538-1.264a1.4,1.4,0,0,1,1.325-1.583,2.518,2.518,0,0,1,1.512.266c.088.034.094.156.075.207l-.256.57c-.035.081-.145.161-.213.124a2.123,2.123,0,0,0-1.021-.244.393.393,0,0,0-.365.41c.04.247.272.4.835.528s1.45.393,1.6,1.3a1.487,1.487,0,0,1-1.349,1.642,2.149,2.149,0,0,1-1.587-.268C933.981-1339.24,933.956-1339.264,933.994-1339.366Z" transform="translate(-884.174 1370.413)" fill="#f9f3ed"/>
        <path id="Tracé_122" data-name="Tracé 122" d="M965.423-1350.626a.129.129,0,0,1,.088-.159l1.569-.45a1.514,1.514,0,0,1,1.87,1.02,1.523,1.523,0,0,1-1.031,1.881l-.683.2.439,1.53a.133.133,0,0,1-.088.159l-.768.22a.129.129,0,0,1-.159-.088Zm2.158,1.36a.532.532,0,0,0,.367-.661.517.517,0,0,0-.652-.334l-.618.177.286,1Z" transform="translate(-911.301 1376.823)" fill="#f9f3ed"/>
        <path id="Tracé_123" data-name="Tracé 123" d="M1001.381-1364.687a2.433,2.433,0,0,1,3.215,1.255,2.421,2.421,0,0,1-1.252,3.206,2.415,2.415,0,0,1-3.2-1.245A2.427,2.427,0,0,1,1001.381-1364.687Zm1.527,3.47a1.356,1.356,0,0,0,.7-1.778,1.364,1.364,0,0,0-1.787-.7,1.362,1.362,0,0,0-.685,1.788A1.355,1.355,0,0,0,1002.908-1361.217Z" transform="translate(-940.621 1388.377)" fill="#f9f3ed"/>
        <path id="Tracé_124" data-name="Tracé 124" d="M1035.352-1387.5a.127.127,0,0,1,.044-.172l.143-.091,3.672.754.006,0-1.284-2.031a.129.129,0,0,1,.04-.177l.686-.434a.133.133,0,0,1,.177.04l2.435,3.851a.128.128,0,0,1-.044.172l-.092.058a.2.2,0,0,1-.092.018l-3.7-.843-.006,0,1.349,2.134a.128.128,0,0,1-.04.177l-.681.431a.133.133,0,0,1-.177-.04Z" transform="translate(-970.699 1409.426)" fill="#f9f3ed"/>
        <path id="Tracé_125" data-name="Tracé 125" d="M1073.812-1403.4l-.114-.636a.175.175,0,0,1,.151-.178,2.022,2.022,0,0,0,.977-.328.424.424,0,0,0,.1-.611c-.181-.219-.5-.234-.973-.08a1.762,1.762,0,0,1-1.966-.312,1.4,1.4,0,0,1,.343-2.035,2.519,2.519,0,0,1,1.439-.535c.093-.016.16.087.17.141l.067.622c.011.088-.044.212-.121.215a2.118,2.118,0,0,0-1,.306.393.393,0,0,0-.108.538c.16.193.437.209.987.034a1.792,1.792,0,0,1,2.038.314,1.487,1.487,0,0,1-.334,2.1,2.15,2.15,0,0,1-1.505.572C1073.864-1403.286,1073.831-1403.294,1073.812-1403.4Z" transform="translate(-1001.584 1425.098)" fill="#f9f3ed"/>
        <path id="Tracé_126" data-name="Tracé 126" d="M1102.336-1423.42l-1.856-4.669a.137.137,0,0,1,.025-.135l.047-.049a.138.138,0,0,1,.133-.032l4.766,1.589a.119.119,0,0,1,.049.2l-.516.546a.227.227,0,0,1-.286.056l-.556-.19-1.265,1.338.226.549a.252.252,0,0,1-.049.289l-.511.541A.119.119,0,0,1,1102.336-1423.42Zm.858-3.017-1.165-.393,0,0,.463,1.136Z" transform="translate(-1026.037 1442.252)" fill="#f9f3ed"/>
        <path id="Tracé_127" data-name="Tracé 127" d="M1118.424-1458.252a.128.128,0,0,1-.028-.18l.93-1.274a1.361,1.361,0,0,1,1.875-.432,1.346,1.346,0,0,1,.4,1.265,1.28,1.28,0,0,1,1.426-.081,1.381,1.381,0,0,1,.184,1.962l-.99,1.356a.128.128,0,0,1-.18.028Zm2.383-.22a.483.483,0,0,0-.114-.67.459.459,0,0,0-.651.111l-.312.426.765.559Zm1.544,1.019a.491.491,0,0,0-.112-.685.541.541,0,0,0-.71.169l-.323.443.781.571Z" transform="translate(-1041.243 1469.477)" fill="#f9f3ed"/>
        <path id="Tracé_128" data-name="Tracé 128" d="M1137.952-1480.152a.129.129,0,0,1-.048-.175l.4-.7a.133.133,0,0,1,.175-.048l3.144,1.785.8-1.4a.129.129,0,0,1,.175-.048l.642.364a.128.128,0,0,1,.048.175l-1.257,2.214a.129.129,0,0,1-.175.049Z" transform="translate(-1057.823 1487.093)" fill="#f9f3ed"/>
        <path id="Tracé_129" data-name="Tracé 129" d="M1152.055-1517.252a.129.129,0,0,1-.068-.169l1.1-2.577a.128.128,0,0,1,.169-.068l.679.289a.129.129,0,0,1,.068.169l-.736,1.725.772.329.605-1.42a.133.133,0,0,1,.169-.068l.679.289a.129.129,0,0,1,.068.169l-.606,1.419.841.359.736-1.725a.128.128,0,0,1,.169-.068l.679.289a.129.129,0,0,1,.068.169l-1.1,2.578a.129.129,0,0,1-.169.068Z" transform="translate(-1069.793 1520.213)" fill="#f9f3ed"/>
      </g>
    </g>
  </g>
</svg>
